<svg id="Layer_1" height="512" viewBox="0 0 512 512" width="512" xmlns="http://www.w3.org/2000/svg" data-name="Layer 1"><path d="m409.41 46h-339.54a16.439 16.439 0 0 0 -16.44 16.44v233.56h372.42v-233.56a16.439 16.439 0 0 0 -16.44-16.44z" fill="#73849b"/><path d="m83.43 62.44a16.439 16.439 0 0 1 16.44-16.44h-30a16.439 16.439 0 0 0 -16.44 16.44v223.88h30" fill="#91a6bc"/><path d="m105.84 272.86v57.54h242.46v-57.54z" fill="#d4e1f4"/><path d="m487.44 258.63h-135.58a13.55 13.55 0 0 0 -13.56 13.55v180.27a13.557 13.557 0 0 0 13.56 13.55h135.58a13.557 13.557 0 0 0 13.56-13.55v-180.27a13.55 13.55 0 0 0 -13.56-13.55z" fill="#6d7486"/><path d="m125.84 424.38v26.31a15.3 15.3 0 0 1 -15.31 15.31h-84.22a15.311 15.311 0 0 1 -15.31-15.31v-26.31z" fill="#6d7486"/><path d="m11 286.32h114.84v138.06h-114.84z" fill="#fb6771"/><path d="m110.53 257.37h-84.22a15.311 15.311 0 0 0 -15.31 15.31v13.64h114.84v-13.64a15.3 15.3 0 0 0 -15.31-15.31z" fill="#6d7486"/><path d="m358.64 280.99h122.02v149.09h-122.02z" fill="#88ced8"/><circle cx="68.42" cy="444.21" fill="#d4e1f4" r="2.87"/><path d="m298.86 371.56a24.651 24.651 0 0 1 24.66 24.66h-172.66a24.651 24.651 0 0 1 24.67-24.66 16.439 16.439 0 0 0 16.44-16.44v-24.72h90.44v24.72a16.448 16.448 0 0 0 16.45 16.44z" fill="#bdcbdb"/><path d="m237.19 293.41a8.22 8.22 0 1 1 -8.22 8.22 8.228 8.228 0 0 1 8.22-8.22z" fill="#6d7486"/><path d="m11 286.32h30v138.06h-30z" fill="#ff99a3"/><path d="m56.31 257.37h-30a15.311 15.311 0 0 0 -15.31 15.31v13.64h30v-13.64a15.311 15.311 0 0 1 15.31-15.31z" fill="#b0b5ca"/><path d="m41 450.69v-26.31h-30v26.31a15.311 15.311 0 0 0 15.31 15.31h30a15.311 15.311 0 0 1 -15.31-15.31z" fill="#b0b5ca"/><path d="m358.64 280.99h30v149.09h-30z" fill="#adf2f7"/><g fill="#284268"><path d="m42.258 280.323a6 6 0 1 0 0 12h.093a5.961 5.961 0 0 0 5.954-6 6.041 6.041 0 0 0 -6.047-6z"/><circle cx="68.422" cy="444.212" r="8.871"/><path d="m426.923 440.347h-14.541a6 6 0 0 0 0 12h14.541a6 6 0 0 0 0-12z"/><path d="m480.663 274.989h-122.021a6 6 0 0 0 -6 6v35.577a6 6 0 0 0 12 0v-29.577h110.021v137.093h-110.021v-67.516a6 6 0 0 0 -12 0v73.516a6 6 0 0 0 6 6h122.021a6 6 0 0 0 6-6v-149.093a6 6 0 0 0 -6-6z"/><path d="m237.193 315.85a14.22 14.22 0 1 0 -14.222-14.22 14.237 14.237 0 0 0 14.222 14.22zm0-16.44a2.22 2.22 0 1 1 -2.222 2.22 2.224 2.224 0 0 1 2.222-2.22z"/><path d="m230.885 365.559h-.391a6 6 0 1 0 0 12h.391a6 6 0 0 0 0-12z"/><path d="m487.442 252.625h-55.592v-190.186a22.467 22.467 0 0 0 -22.444-22.439h-339.532a22.467 22.467 0 0 0 -22.444 22.439v188.929h-21.118a21.335 21.335 0 0 0 -21.312 21.309v178.015a21.335 21.335 0 0 0 21.312 21.308h84.219a21.335 21.335 0 0 0 21.313-21.308v-114.292h54.128v18.721a10.454 10.454 0 0 1 -10.444 10.44 30.7 30.7 0 0 0 -30.666 30.659 6 6 0 0 0 6 6h172.663a6 6 0 0 0 6-6 30.7 30.7 0 0 0 -29.188-30.62 6.18 6.18 0 0 0 -.656-.037h-.822a10.454 10.454 0 0 1 -10.444-10.44v-18.723h43.89v116.046a19.577 19.577 0 0 0 19.558 19.554h135.579a19.578 19.578 0 0 0 19.558-19.554v-180.267a19.578 19.578 0 0 0 -19.558-19.554zm-367.6 198.067a9.321 9.321 0 0 1 -9.311 9.308h-84.219a9.321 9.321 0 0 1 -9.312-9.308v-20.31h102.844zm0-170.369h-59.962a6 6 0 1 0 0 12h59.964v126.059h-102.844v-126.059h8.017a6 6 0 0 0 0-12h-8.017v-7.646a9.321 9.321 0 0 1 9.312-9.309h84.219a9.322 9.322 0 0 1 9.313 9.309zm179.015 97.236a18.7 18.7 0 0 1 17.676 12.659h-158.682a18.7 18.7 0 0 1 17.677-12.659 22.468 22.468 0 0 0 22.444-22.44v-18.719h78.443v18.721a22.292 22.292 0 0 0 2.585 10.438h-27.589a6 6 0 0 0 0 12zm34.2-110.7h-139.919a6 6 0 0 0 0 12h139.167v45.541h-200.461v-45.539h21.294a6 6 0 1 0 0-12h-22.121a21.335 21.335 0 0 0 -20.486-15.493h-51.101v-188.929a10.454 10.454 0 0 1 10.444-10.439h339.532a10.454 10.454 0 0 1 10.444 10.439v190.186h-67.987a19.579 19.579 0 0 0 -18.804 14.236zm161.943 185.587a7.564 7.564 0 0 1 -7.558 7.554h-135.579a7.564 7.564 0 0 1 -7.558-7.554v-180.267a7.564 7.564 0 0 1 7.558-7.554h135.579a7.564 7.564 0 0 1 7.558 7.554z"/></g></svg>